<svg width="220" height="60" viewBox="0 0 220 60" fill="none" xmlns="http://www.w3.org/2000/svg">
<rect width="220" height="60" fill="white"/>
<path d="M108.155 25.4709C108.424 26.0729 109.013 26.5315 109.776 26.5315L112.86 26.5315L112.86 27.0686C112.431 27.4088 112.173 27.9385 112.173 28.4856L112.173 31.0286L109.899 36.6565C109.72 37.0935 109.72 37.5847 109.899 38.0217L109.903 38.0335L109.908 38.0442L112.216 43.4553L112.089 43.4553L111.05 41.1614L111.048 41.1614C110.669 40.3212 109.655 39.8355 108.707 40.261L108.707 40.26C108.7 40.263 108.693 40.2667 108.687 40.2698C108.681 40.2724 108.675 40.2749 108.669 40.2776L108.669 40.2786C108.306 40.4494 108.024 40.7323 107.85 41.0696L107.787 41.2034L106.855 43.4387L106.654 43.4387L108.838 38.2219L108.836 38.2209C109.04 37.7437 109.022 37.2177 108.819 36.7717L108.811 36.7512L108.801 36.7317L108.369 35.8528L108.788 35.8528C109.566 35.8528 110.197 35.355 110.444 34.7053L110.445 34.7063L111.688 31.471L111.736 31.345L111.762 31.2122C111.79 31.0642 111.798 30.9125 111.788 30.762L111.788 28.4788C111.788 27.5589 111.062 26.6848 110.009 26.6848L109.477 26.6848C108.476 26.6848 107.759 27.4818 107.7 28.3577L107.7 28.3635L107.486 31.7854L107.228 31.7854L107.662 25.4709L108.155 25.4709Z" fill="#004844" stroke="#004844" stroke-width="3.02042"/>
<mask id="path-2-inside-1_28_4388" fill="white">
<path d="M93.6763 36.2277C93.725 36.1799 93.725 36.1015 93.6796 36.0504C93.6568 36.0265 93.6244 36.0095 93.5919 36.0129L93.527 36.0129C93.4491 36.0129 93.394 36.0129 93.394 35.8697L93.394 33.1968C93.394 33.04 93.5141 32.9139 93.6633 32.9139L96.159 32.9139C96.2369 32.9139 96.3083 32.8798 96.3602 32.8184L96.6166 32.5218C96.7172 32.4059 96.7075 32.2252 96.5939 32.1229C96.5452 32.0752 96.4803 32.0513 96.4154 32.0513L93.5725 32.0513C93.4232 32.0513 93.3064 31.9252 93.3031 31.7683L93.3031 29.1603C93.3031 29.0034 93.4232 28.8773 93.5725 28.8773L95.9189 28.8773C96.0682 28.8773 96.1882 28.7511 96.1882 28.5943L96.1882 28.3864C96.1882 28.2295 96.0682 28.1034 95.9189 28.1034L94.0787 28.1034C93.9327 28.1034 93.8126 27.9807 93.8094 27.8272C93.8094 27.8272 93.8094 27.8238 93.8094 27.8204L93.8094 25.2123C93.8094 25.0555 93.9295 24.9294 94.0787 24.9294L95.9189 24.9294C96.0649 24.9294 96.185 24.8066 96.1882 24.6532C96.1882 24.6532 96.1882 24.6498 96.1882 24.6464L96.1882 24.2509C96.1882 24.0941 96.3083 23.9714 96.4576 23.968L99.0344 23.968C99.1837 23.968 99.3005 24.0941 99.3038 24.2509L99.3038 24.6464C99.3038 24.8032 99.4239 24.9294 99.5731 24.9294L100.865 24.9294C101.014 24.9294 101.134 25.0555 101.134 25.2123L101.134 27.8204C101.134 27.9738 101.017 28.1 100.871 28.1034C100.871 28.1034 100.868 28.1034 100.865 28.1034L99.5796 28.1034C99.4304 28.1034 99.3135 28.2295 99.3103 28.3864L99.3103 28.5943C99.3103 28.7511 99.4304 28.8739 99.5796 28.8773L100.803 28.8773C100.923 28.8773 101.027 28.7955 101.063 28.6727L102.186 24.7487C102.218 24.6294 102.322 24.5441 102.442 24.5441L105.132 24.5441C105.282 24.5441 105.405 24.6737 105.405 24.8305C105.405 24.8612 105.402 24.8919 105.392 24.9191L104.363 28.5193C104.315 28.6693 104.393 28.833 104.535 28.8807C104.565 28.8909 104.59 28.8943 104.62 28.8943L104.814 28.8943C104.964 28.8943 105.084 29.0205 105.084 29.1773L105.084 31.7854C105.084 31.9422 104.964 32.065 104.814 32.0684L100.712 32.0684C100.634 32.0684 100.556 32.1059 100.508 32.1706L100.268 32.4672C100.174 32.5866 100.187 32.7639 100.303 32.8661C100.352 32.9105 100.414 32.9309 100.475 32.9309L104.808 32.9309C104.957 32.9309 105.074 33.057 105.077 33.2139L105.077 34.4378C105.077 34.5196 105.042 34.598 104.983 34.6526L103.231 36.2549C103.12 36.3572 103.107 36.5379 103.208 36.6538C103.263 36.722 103.348 36.7561 103.432 36.7493L104.827 36.6163C104.977 36.6027 105.106 36.7152 105.119 36.872C105.119 36.8788 105.119 36.8891 105.119 36.8959L105.119 39.5074C105.119 39.654 105.016 39.7733 104.879 39.7903L103.296 39.9744C103.159 39.9881 103.055 40.1108 103.055 40.254L103.055 44.6622C103.055 44.819 102.935 44.9451 102.786 44.9451L95.7696 44.9451C95.6203 44.9451 95.5002 44.819 95.5002 44.6622L95.5002 42.1393C95.5002 41.9859 95.617 41.8598 95.7631 41.8564C95.7631 41.8564 95.7663 41.8564 95.7696 41.8564L99.5342 41.8564C99.6835 41.8564 99.8036 41.7302 99.8036 41.5734L99.8036 40.5779C99.8036 40.4211 99.6835 40.2949 99.5342 40.2949C99.5245 40.2949 99.518 40.2949 99.5082 40.2949L93.6861 40.8643C93.5368 40.8779 93.407 40.7654 93.394 40.6086C93.394 40.5983 93.394 40.5915 93.394 40.5813L93.394 38.0687C93.394 37.9221 93.5011 37.8027 93.6374 37.7891L98.1419 37.3391C98.2036 37.3323 98.2588 37.305 98.3042 37.2607L98.9922 36.5686C99.0993 36.4595 99.1026 36.2822 98.9987 36.1697C98.9468 36.1152 98.8786 36.0845 98.804 36.0845L97.3858 36.0845C97.3144 36.0845 97.2462 36.1152 97.1943 36.1663L96.5257 36.8652C96.4738 36.9197 96.4057 36.947 96.3343 36.947L93.2544 36.947C93.1895 36.947 93.1343 36.8959 93.1311 36.8277C93.1311 36.7902 93.1441 36.7561 93.1668 36.7322L93.6666 36.2208L93.6763 36.2277Z"/>
</mask>
<path d="M93.6763 36.2277C93.725 36.1799 93.725 36.1015 93.6796 36.0504C93.6568 36.0265 93.6244 36.0095 93.5919 36.0129L93.527 36.0129C93.4491 36.0129 93.394 36.0129 93.394 35.8697L93.394 33.1968C93.394 33.04 93.5141 32.9139 93.6633 32.9139L96.159 32.9139C96.2369 32.9139 96.3083 32.8798 96.3602 32.8184L96.6166 32.5218C96.7172 32.4059 96.7075 32.2252 96.5939 32.1229C96.5452 32.0752 96.4803 32.0513 96.4154 32.0513L93.5725 32.0513C93.4232 32.0513 93.3064 31.9252 93.3031 31.7683L93.3031 29.1603C93.3031 29.0034 93.4232 28.8773 93.5725 28.8773L95.9189 28.8773C96.0682 28.8773 96.1882 28.7511 96.1882 28.5943L96.1882 28.3864C96.1882 28.2295 96.0682 28.1034 95.9189 28.1034L94.0787 28.1034C93.9327 28.1034 93.8126 27.9807 93.8094 27.8272C93.8094 27.8272 93.8094 27.8238 93.8094 27.8204L93.8094 25.2123C93.8094 25.0555 93.9295 24.9294 94.0787 24.9294L95.9189 24.9294C96.0649 24.9294 96.185 24.8066 96.1882 24.6532C96.1882 24.6532 96.1882 24.6498 96.1882 24.6464L96.1882 24.2509C96.1882 24.0941 96.3083 23.9714 96.4576 23.968L99.0344 23.968C99.1837 23.968 99.3005 24.0941 99.3038 24.2509L99.3038 24.6464C99.3038 24.8032 99.4239 24.9294 99.5731 24.9294L100.865 24.9294C101.014 24.9294 101.134 25.0555 101.134 25.2123L101.134 27.8204C101.134 27.9738 101.017 28.1 100.871 28.1034C100.871 28.1034 100.868 28.1034 100.865 28.1034L99.5796 28.1034C99.4304 28.1034 99.3135 28.2295 99.3103 28.3864L99.3103 28.5943C99.3103 28.7511 99.4304 28.8739 99.5796 28.8773L100.803 28.8773C100.923 28.8773 101.027 28.7955 101.063 28.6727L102.186 24.7487C102.218 24.6294 102.322 24.5441 102.442 24.5441L105.132 24.5441C105.282 24.5441 105.405 24.6737 105.405 24.8305C105.405 24.8612 105.402 24.8919 105.392 24.9191L104.363 28.5193C104.315 28.6693 104.393 28.833 104.535 28.8807C104.565 28.8909 104.59 28.8943 104.62 28.8943L104.814 28.8943C104.964 28.8943 105.084 29.0205 105.084 29.1773L105.084 31.7854C105.084 31.9422 104.964 32.065 104.814 32.0684L100.712 32.0684C100.634 32.0684 100.556 32.1059 100.508 32.1706L100.268 32.4672C100.174 32.5866 100.187 32.7639 100.303 32.8661C100.352 32.9105 100.414 32.9309 100.475 32.9309L104.808 32.9309C104.957 32.9309 105.074 33.057 105.077 33.2139L105.077 34.4378C105.077 34.5196 105.042 34.598 104.983 34.6526L103.231 36.2549C103.12 36.3572 103.107 36.5379 103.208 36.6538C103.263 36.722 103.348 36.7561 103.432 36.7493L104.827 36.6163C104.977 36.6027 105.106 36.7152 105.119 36.872C105.119 36.8788 105.119 36.8891 105.119 36.8959L105.119 39.5074C105.119 39.654 105.016 39.7733 104.879 39.7903L103.296 39.9744C103.159 39.9881 103.055 40.1108 103.055 40.254L103.055 44.6622C103.055 44.819 102.935 44.9451 102.786 44.9451L95.7696 44.9451C95.6203 44.9451 95.5002 44.819 95.5002 44.6622L95.5002 42.1393C95.5002 41.9859 95.617 41.8598 95.7631 41.8564C95.7631 41.8564 95.7663 41.8564 95.7696 41.8564L99.5342 41.8564C99.6835 41.8564 99.8036 41.7302 99.8036 41.5734L99.8036 40.5779C99.8036 40.4211 99.6835 40.2949 99.5342 40.2949C99.5245 40.2949 99.518 40.2949 99.5082 40.2949L93.6861 40.8643C93.5368 40.8779 93.407 40.7654 93.394 40.6086C93.394 40.5983 93.394 40.5915 93.394 40.5813L93.394 38.0687C93.394 37.9221 93.5011 37.8027 93.6374 37.7891L98.1419 37.3391C98.2036 37.3323 98.2588 37.305 98.3042 37.2607L98.9922 36.5686C99.0993 36.4595 99.1026 36.2822 98.9987 36.1697C98.9468 36.1152 98.8786 36.0845 98.804 36.0845L97.3858 36.0845C97.3144 36.0845 97.2462 36.1152 97.1943 36.1663L96.5257 36.8652C96.4738 36.9197 96.4057 36.947 96.3343 36.947L93.2544 36.947C93.1895 36.947 93.1343 36.8959 93.1311 36.8277C93.1311 36.7902 93.1441 36.7561 93.1668 36.7322L93.6666 36.2208L93.6763 36.2277Z" fill="#004844" stroke="#004844" stroke-width="6.04083" mask="url(#path-2-inside-1_28_4388)"/>
<path d="M137.701 34.1383L137.701 43.443L137.021 43.443C137.214 43.1647 137.327 42.832 137.336 42.484L137.337 42.4655L137.337 42.4401C137.337 41.7876 136.953 41.1403 136.328 40.8502C136.936 40.5322 137.317 39.8857 137.317 39.2116L137.317 39.0143C137.317 38.348 136.945 37.7083 136.35 37.3864C136.945 37.0646 137.317 36.4247 137.317 35.7584L137.317 35.5602C137.317 35.0158 137.069 34.4888 136.653 34.1383L137.701 34.1383ZM122.783 34.1383C122.383 34.4757 122.137 34.976 122.118 35.4967L122.117 35.5231L122.117 35.7584C122.117 36.4239 122.488 37.0632 123.082 37.3854C122.508 37.6981 122.141 38.3101 122.118 38.9508L122.117 38.9772L122.117 39.2116C122.117 39.8975 122.511 40.5551 123.138 40.8668C122.532 41.1605 122.144 41.7853 122.13 42.4459L122.13 43.4391L121.762 43.4391L121.762 34.1383L122.783 34.1383ZM136.698 29.6686L136.998 30.3004L134.561 30.3004C134.876 30.1674 135.139 29.9445 135.324 29.6686L136.698 29.6686ZM125.343 26.3414C124.994 26.518 124.714 26.8043 124.545 27.1461L124.54 27.1549L124.536 27.1627L124.209 27.8483L124.21 27.8483C123.809 28.6673 124.078 29.6862 124.891 30.1774L124.909 30.1891L124.928 30.1998C124.936 30.2047 124.946 30.2078 124.955 30.2125L125.039 30.3004L122.372 30.3004L123.167 28.7809C123.595 27.9641 123.34 26.9107 122.51 26.4078L122.511 26.4078C122.506 26.4052 122.502 26.4026 122.498 26.4C122.491 26.396 122.484 26.3913 122.478 26.3873L122.477 26.3883C122.449 26.3721 122.421 26.3557 122.394 26.3414L125.343 26.3414ZM130.485 25.4752C130.656 25.7609 130.909 25.9973 131.212 26.151L128.272 26.151C128.572 25.9972 128.816 25.7601 128.981 25.4752L130.485 25.4752Z" fill="#004844" stroke="#004844" stroke-width="3.02042"/>
<path d="M77.77 37.3591L77.77 38.1637C77.77 38.5182 77.8754 38.8561 78.0591 39.1413C77.91 39.0804 77.7496 39.0381 77.5786 39.0202L77.3853 39.0094C76.9407 39.0094 76.5405 39.1774 76.2417 39.4284L76.2378 39.4313L71.4761 43.4557L71.0024 43.4557L73.0405 41.735L73.0395 41.7341L76.5229 38.7956C76.9371 38.4476 77.1655 37.9347 77.1655 37.4137L77.1655 37.3591L77.77 37.3591ZM78.8784 39.8268C79.0855 39.9122 79.3136 39.9606 79.5562 39.9606L79.6782 39.9606L79.6782 41.3796C79.6785 42.2993 80.409 43.1755 81.4614 43.1755L84.8589 43.1755C85.613 43.1755 86.256 42.7069 86.5181 42.0407L86.7944 42.0407L86.4419 43.3024L79.1714 43.3024L79.1714 40.8102C79.1714 40.4608 79.0657 40.1179 78.8784 39.8268Z" fill="#004844" stroke="#004844" stroke-width="3.02042"/>
<path d="M86.4617 25.9046L84.073 25.973L75.4607 26.2151L69.2498 26.39L69.2498 26.3704L86.4617 25.8909L86.4617 25.9046Z" fill="#004844" stroke="#004844" stroke-width="3.02042"/>
<path d="M86.0796 33.337L86.0796 37.9366L85.5688 37.9366L85.5688 35.335C85.5687 34.4633 84.887 33.5352 83.7896 33.5352L71.937 33.5352C70.8847 33.5355 70.1548 34.4123 70.1548 35.3321L70.1548 38.4141L69.6274 38.4141L69.6274 33.337L86.0796 33.337Z" fill="#004844" stroke="#004844" stroke-width="3.02042"/>
<path d="M85.3469 29.5935L85.2971 29.699L84.8499 29.699L84.9026 29.5935L85.3469 29.5935Z" fill="#004844" stroke="#004844" stroke-width="3.02042"/>
<mask id="path-8-inside-2_28_4388" fill="white">
<path d="M79.8407 30.7573C79.9023 30.9004 79.8407 31.0709 79.7044 31.1357C79.6687 31.1527 79.6297 31.1595 79.5908 31.1595L76.472 31.1595C76.3617 31.1595 76.261 31.0914 76.2156 30.9857L75.268 28.7219C75.2063 28.5787 75.268 28.4083 75.4043 28.3435C75.44 28.3265 75.4789 28.3196 75.5179 28.3196L78.6367 28.3196C78.7438 28.3196 78.8444 28.3844 78.8865 28.4901L79.8374 30.7573L79.8407 30.7573Z"/>
</mask>
<path d="M79.8407 30.7573C79.9023 30.9004 79.8407 31.0709 79.7044 31.1357C79.6687 31.1527 79.6297 31.1595 79.5908 31.1595L76.472 31.1595C76.3617 31.1595 76.261 31.0914 76.2156 30.9857L75.268 28.7219C75.2063 28.5787 75.268 28.4083 75.4043 28.3435C75.44 28.3265 75.4789 28.3196 75.5179 28.3196L78.6367 28.3196C78.7438 28.3196 78.8444 28.3844 78.8865 28.4901L79.8374 30.7573L79.8407 30.7573Z" fill="#004844"/>
<path d="M79.8407 30.7573L82.6148 29.5626L81.8286 27.7368L79.8407 27.7368L79.8407 30.7573ZM79.7044 31.1357L78.4079 28.4076L78.4029 28.4101L79.7044 31.1357ZM76.2156 30.9857L73.4295 32.152L73.435 32.1653L73.4407 32.1786L76.2156 30.9857ZM75.268 28.7219L78.0541 27.5556L78.0482 27.5414L78.0421 27.5273L75.268 28.7219ZM75.4043 28.3435L76.7007 31.0715L76.7058 31.0691L75.4043 28.3435ZM78.8865 28.4901L76.0814 29.6099L76.0911 29.6342L76.1012 29.6583L78.8865 28.4901ZM79.8374 30.7573L77.0521 31.9255L77.8289 33.7777L79.8374 33.7777L79.8374 30.7573ZM79.8407 30.7573L77.0666 31.9519C76.5171 30.6759 77.0061 29.0738 78.4079 28.4076L79.7044 31.1357L81.0008 33.8637C82.6753 33.068 83.2876 31.125 82.6148 29.5626L79.8407 30.7573ZM79.7044 31.1357L78.4029 28.4101C78.859 28.1923 79.2847 28.1391 79.5908 28.1391L79.5908 31.1595L79.5908 34.18C79.9748 34.18 80.4783 34.1132 81.0059 33.8613L79.7044 31.1357ZM79.5908 31.1595L79.5908 28.1391L76.472 28.1391L76.472 31.1595L76.472 34.18L79.5908 34.18L79.5908 31.1595ZM76.472 31.1595L76.472 28.1391C77.6329 28.1391 78.5851 28.8498 78.9905 29.7928L76.2156 30.9857L73.4407 32.1786C73.937 33.333 75.0904 34.18 76.472 34.18L76.472 31.1595ZM76.2156 30.9857L79.0018 29.8193L78.0541 27.5556L75.268 28.7219L72.4818 29.8883L73.4295 32.152L76.2156 30.9857ZM75.268 28.7219L78.0421 27.5273C78.5915 28.8032 78.1026 30.4053 76.7007 31.0715L75.4043 28.3435L74.1078 25.6155C72.4333 26.4112 71.8211 28.3543 72.4938 29.9166L75.268 28.7219ZM75.4043 28.3435L76.7058 31.0691C76.2496 31.287 75.8239 31.34 75.5179 31.34L75.5179 28.3196L75.5179 25.2992C75.134 25.2992 74.6304 25.3659 74.1028 25.6179L75.4043 28.3435ZM75.5179 28.3196L75.5179 31.34L78.6367 31.34L78.6367 28.3196L78.6367 25.2992L75.5179 25.2992L75.5179 28.3196ZM78.6367 28.3196L78.6367 31.34C77.5293 31.34 76.5053 30.6717 76.0814 29.6099L78.8865 28.4901L81.6917 27.3703C81.1835 26.0971 79.9582 25.2992 78.6367 25.2992L78.6367 28.3196ZM78.8865 28.4901L76.1012 29.6583L77.0521 31.9255L79.8374 30.7573L82.6228 29.589L81.6719 27.3219L78.8865 28.4901ZM79.8374 30.7573L79.8374 33.7777L79.8407 33.7777L79.8407 30.7573L79.8407 27.7368L79.8374 27.7368L79.8374 30.7573Z" fill="#004844" mask="url(#path-8-inside-2_28_4388)"/>
<mask id="path-10-inside-3_28_4388" fill="white">
<path d="M72.6909 30.7446C72.759 30.8878 72.7006 31.0616 72.5643 31.1332C72.5254 31.1537 72.4864 31.1639 72.441 31.1639L69.3352 31.1639C69.2313 31.1639 69.134 31.0991 69.0885 31.0003L68.1149 28.8763C68.0468 28.7365 68.0987 28.5627 68.2318 28.4911C68.2675 28.4706 68.3097 28.4604 68.3518 28.4604L71.4155 28.4604C71.5193 28.4604 71.6167 28.5252 71.6621 28.624L72.6844 30.748L72.6909 30.7446Z"/>
</mask>
<path d="M72.6909 30.7446C72.759 30.8878 72.7006 31.0616 72.5643 31.1332C72.5254 31.1537 72.4864 31.1639 72.441 31.1639L69.3352 31.1639C69.2313 31.1639 69.134 31.0991 69.0885 31.0003L68.1149 28.8763C68.0468 28.7365 68.0987 28.5627 68.2318 28.4911C68.2675 28.4706 68.3097 28.4604 68.3518 28.4604L71.4155 28.4604C71.5193 28.4604 71.6167 28.5252 71.6621 28.624L72.6844 30.748L72.6909 30.7446Z" fill="#004844"/>
<path d="M72.6909 30.7446L75.4181 29.4465L74.0681 26.61L71.2868 28.0704L72.6909 30.7446ZM69.0885 31.0003L66.3428 32.2589L66.3441 32.2615L69.0885 31.0003ZM68.1149 28.8763L70.8606 27.6177L70.8456 27.585L70.8298 27.5526L68.1149 28.8763ZM68.2318 28.4911L69.6629 31.1509L69.6984 31.1318L69.7334 31.1117L68.2318 28.4911ZM71.6621 28.624L68.9176 29.8853L68.9289 29.9097L68.9405 29.9339L71.6621 28.624ZM72.6844 30.748L69.9628 32.0579L71.3193 34.8762L74.0885 33.4222L72.6844 30.748ZM72.6909 30.7446L69.9636 32.0427C69.3438 30.7404 69.8418 29.1515 71.1598 28.4592L72.5643 31.1332L73.9688 33.8072C75.5594 32.9718 76.1743 31.0352 75.4181 29.4465L72.6909 30.7446ZM72.5643 31.1332L71.1598 28.4592C71.3278 28.371 71.531 28.2869 71.7667 28.2275C72.0033 28.1678 72.2312 28.1435 72.441 28.1435L72.441 31.1639L72.441 34.1843C72.9969 34.1843 73.5158 34.0452 73.9688 33.8072L72.5643 31.1332ZM72.441 31.1639L72.441 28.1435L69.3352 28.1435L69.3352 31.1639L69.3352 34.1843L72.441 34.1843L72.441 31.1639ZM69.3352 31.1639L69.3352 28.1435C70.4875 28.1435 71.4184 28.8368 71.833 29.739L69.0885 31.0003L66.3441 32.2615C66.8495 33.3615 67.9752 34.1843 69.3352 34.1843L69.3352 31.1639ZM69.0885 31.0003L71.8342 29.7417L70.8606 27.6177L68.1149 28.8763L65.3692 30.1349L66.3428 32.2589L69.0885 31.0003ZM68.1149 28.8763L70.8298 27.5526C71.4262 28.7756 71.0482 30.4055 69.6629 31.1509L68.2318 28.4911L66.8006 25.8312C65.1492 26.7198 64.6674 28.6974 65.4 30.2L68.1149 28.8763ZM68.2318 28.4911L69.7334 31.1117C69.2655 31.3799 68.7802 31.4808 68.3518 31.4808L68.3518 28.4604L68.3518 25.44C67.8392 25.44 67.2695 25.5613 66.7301 25.8704L68.2318 28.4911ZM68.3518 28.4604L68.3518 31.4808L71.4155 31.4808L71.4155 28.4604L71.4155 25.44L68.3518 25.44L68.3518 28.4604ZM71.4155 28.4604L71.4155 31.4808C70.2632 31.4808 69.3322 30.7875 68.9176 29.8853L71.6621 28.624L74.4066 27.3628C73.9011 26.2628 72.7755 25.44 71.4155 25.44L71.4155 28.4604ZM71.6621 28.624L68.9405 29.9339L69.9628 32.0579L72.6844 30.748L75.406 29.4381L74.3837 27.3141L71.6621 28.624ZM72.6844 30.748L74.0885 33.4222L74.095 33.4188L72.6909 30.7446L71.2868 28.0704L71.2803 28.0738L72.6844 30.748Z" fill="#004844" mask="url(#path-10-inside-3_28_4388)"/>
<path d="M52.9277 25.6594L52.8818 26.2258L60.5049 26.2258L60.5049 29.6087L59.6338 30.051L59.6338 30.052C58.7873 30.4772 58.4306 31.4788 58.7773 32.3372L58.7764 32.3382C58.7772 32.3402 58.7785 32.342 58.7793 32.344C58.7817 32.3498 58.7837 32.3558 58.7861 32.3616L58.7861 32.3606C58.9708 32.8035 59.3052 33.1057 59.6445 33.2747L59.6758 33.2903L59.708 33.304L60.498 33.6526L60.498 33.7903L57.1152 32.2258L57.0967 32.2171L57.0781 32.2092L56.9082 32.1467C56.5632 32.0381 56.1841 32.033 55.8232 32.1507L55.6445 32.22L52.1562 33.7903L52.1562 33.678L54.5605 32.554L54.5859 32.5423C55.1219 32.2794 55.4873 31.7689 55.5732 31.1878L55.7021 31.2473L55.7021 31.2464C56.1799 31.466 56.7318 31.4635 57.207 31.2366L57.2178 31.2317L57.2285 31.2258L59.0596 30.3157L59.0586 30.3147C59.7168 29.9882 60.038 29.342 60.0557 28.7493L60.0557 28.0364C60.0557 27.1646 59.374 26.2366 58.2764 26.2366L54.2715 26.2366C53.3204 26.2366 52.631 26.9565 52.5098 27.7659L52.5088 27.7659L52.3301 28.9456L52.3115 29.0725L52.1279 29.0725L52.6592 25.6594L52.9277 25.6594Z" fill="#004844" stroke="#004844" stroke-width="3.02042"/>
<path d="M60.384 37.6477L60.384 43.4504L58.2678 43.4504C59.2854 43.4124 59.9834 42.5569 59.9836 41.6545L59.9836 39.4514C59.9835 38.4928 59.2157 37.6556 58.1975 37.6555L54.4485 37.6555C53.3963 37.6557 52.6664 38.5317 52.6663 39.4514L52.6663 41.6545C52.6665 42.5336 53.3395 43.4114 54.3772 43.4504L52.2493 43.4504L52.2493 37.6477L60.384 37.6477Z" fill="#004844" stroke="#004844" stroke-width="3.02042"/>
<path d="M48.5592 26.3802L48.5592 32.1664L48.1481 32.1664C47.0957 32.1666 46.3658 33.0434 46.3658 33.9633L46.3658 34.9008C46.366 35.7999 47.0699 36.7004 48.1481 36.7006L48.5104 36.7006L48.5104 36.7074L48.1481 36.7074C47.0588 36.7076 46.366 37.6233 46.3658 38.5072L46.3658 40.6381C46.3658 41.5427 47.0703 42.4141 48.111 42.4379L48.275 42.4379L48.3688 42.4261L48.608 42.3959L48.608 42.5424L41.5123 43.4398L41.5123 43.2679C42.0839 42.9446 42.4183 42.3222 42.4166 41.6986L42.4186 41.6986L42.4186 36.6967L42.4586 36.6967L42.4586 41.1595C42.4586 42.1063 43.2143 42.9603 44.2477 42.9603L44.3737 42.9603L44.4703 42.9476L44.6813 42.9203L44.6803 42.9193C45.6269 42.7987 46.2408 41.9864 46.2408 41.1361L46.2408 33.973C46.2407 33.0532 45.5111 32.1762 44.4586 32.1761L42.1295 32.1761L42.1295 26.3802L48.5592 26.3802ZM44.2379 26.3842C43.2049 26.3842 42.4518 27.2339 42.4518 28.181L42.4518 30.3422C42.4518 31.2655 43.1821 32.142 44.2379 32.142L46.36 32.142C47.3667 32.142 48.1461 31.3163 48.1461 30.349L48.1461 28.181C48.1461 27.2612 47.4163 26.3844 46.3639 26.3842L44.2379 26.3842Z" fill="#004844" stroke="#004844" stroke-width="3.02042"/>
<mask id="path-15-inside-4_28_4388" fill="white">
<path d="M39.9996 15.023L41.1647 15.023L41.1647 19.4448L43.3196 19.4448L43.3196 20.5767L39.9996 20.5767L39.9996 15.023Z"/>
</mask>
<path d="M39.9996 15.023L41.1647 15.023L41.1647 19.4448L43.3196 19.4448L43.3196 20.5767L39.9996 20.5767L39.9996 15.023Z" fill="#004844"/>
<path d="M39.9996 15.023L39.9996 12.0026L36.9792 12.0026L36.9792 15.023L39.9996 15.023ZM41.1647 15.023L44.1851 15.023L44.1851 12.0026L41.1647 12.0026L41.1647 15.023ZM41.1647 19.4448L38.1443 19.4448L38.1443 22.4652L41.1647 22.4652L41.1647 19.4448ZM43.3196 19.4448L46.3401 19.4448L46.3401 16.4244L43.3196 16.4244L43.3196 19.4448ZM43.3196 20.5767L43.3196 23.5971L46.3401 23.5971L46.3401 20.5767L43.3196 20.5767ZM39.9996 20.5767L36.9792 20.5767L36.9792 23.5971L39.9996 23.5971L39.9996 20.5767ZM39.9996 15.023L39.9996 18.0434L41.1647 18.0434L41.1647 15.023L41.1647 12.0026L39.9996 12.0026L39.9996 15.023ZM41.1647 15.023L38.1443 15.023L38.1443 19.4448L41.1647 19.4448L44.1851 19.4448L44.1851 15.023L41.1647 15.023ZM41.1647 19.4448L41.1647 22.4652L43.3196 22.4652L43.3196 19.4448L43.3196 16.4244L41.1647 16.4244L41.1647 19.4448ZM43.3196 19.4448L40.2992 19.4448L40.2992 20.5767L43.3196 20.5767L46.3401 20.5767L46.3401 19.4448L43.3196 19.4448ZM43.3196 20.5767L43.3196 17.5563L39.9996 17.5563L39.9996 20.5767L39.9996 23.5971L43.3196 23.5971L43.3196 20.5767ZM39.9996 20.5767L43.02 20.5767L43.02 15.023L39.9996 15.023L36.9792 15.023L36.9792 20.5767L39.9996 20.5767Z" fill="#004844" mask="url(#path-15-inside-4_28_4388)"/>
<mask id="path-17-inside-5_28_4388" fill="white">
<path d="M48.3087 18.4357C48.3087 18.7459 48.2633 19.0528 48.1659 19.346C48.0783 19.6153 47.9355 19.8608 47.7473 20.0653C47.5493 20.2767 47.3124 20.4369 47.0463 20.5392C46.7379 20.6619 46.4134 20.7199 46.0856 20.7131C45.7546 20.7199 45.4268 20.6619 45.1153 20.5392C44.8524 20.4369 44.6122 20.2733 44.4143 20.0619C44.226 19.8574 44.0832 19.6119 43.9956 19.3426C43.8982 19.0494 43.8496 18.7425 43.8528 18.4323L43.8528 15.0367L45.0276 15.0367L45.0276 18.3845C45.0276 18.5482 45.0536 18.7118 45.1055 18.8618C45.1542 19.0016 45.2288 19.1312 45.323 19.2403C45.4171 19.3494 45.5307 19.4346 45.6605 19.4926C45.7968 19.5539 45.9428 19.5846 46.0921 19.5846C46.2382 19.5846 46.3842 19.5539 46.5205 19.4926C46.6471 19.4346 46.7607 19.3494 46.8548 19.2403C46.9521 19.1312 47.0268 19.0016 47.0722 18.8618C47.1274 18.7084 47.1533 18.5448 47.1501 18.3845L47.1501 15.023L48.3152 15.023L48.3087 18.4357Z"/>
</mask>
<path d="M48.3087 18.4357C48.3087 18.7459 48.2633 19.0528 48.1659 19.346C48.0783 19.6153 47.9355 19.8608 47.7473 20.0653C47.5493 20.2767 47.3124 20.4369 47.0463 20.5392C46.7379 20.6619 46.4134 20.7199 46.0856 20.7131C45.7546 20.7199 45.4268 20.6619 45.1153 20.5392C44.8524 20.4369 44.6122 20.2733 44.4143 20.0619C44.226 19.8574 44.0832 19.6119 43.9956 19.3426C43.8982 19.0494 43.8496 18.7425 43.8528 18.4323L43.8528 15.0367L45.0276 15.0367L45.0276 18.3845C45.0276 18.5482 45.0536 18.7118 45.1055 18.8618C45.1542 19.0016 45.2288 19.1312 45.323 19.2403C45.4171 19.3494 45.5307 19.4346 45.6605 19.4926C45.7968 19.5539 45.9428 19.5846 46.0921 19.5846C46.2382 19.5846 46.3842 19.5539 46.5205 19.4926C46.6471 19.4346 46.7607 19.3494 46.8548 19.2403C46.9521 19.1312 47.0268 19.0016 47.0722 18.8618C47.1274 18.7084 47.1533 18.5448 47.1501 18.3845L47.1501 15.023L48.3152 15.023L48.3087 18.4357Z" fill="#004844"/>
<path d="M48.3087 18.4357L45.2883 18.4299L45.2883 18.4357L48.3087 18.4357ZM48.1659 19.346L45.2994 18.3941L45.2965 18.4028L45.2937 18.4115L48.1659 19.346ZM47.7473 20.0653L49.9518 22.13L49.9609 22.1203L49.9699 22.1105L47.7473 20.0653ZM47.0463 20.5392L45.9627 17.7198L45.9459 17.7263L45.9291 17.733L47.0463 20.5392ZM46.0856 20.7131L46.1484 17.6933L46.0859 17.692L46.0234 17.6933L46.0856 20.7131ZM45.1153 20.5392L46.2223 17.729L46.2105 17.7243L45.1153 20.5392ZM44.4143 20.0619L42.1917 22.1071L42.2007 22.1169L42.2097 22.1266L44.4143 20.0619ZM43.9956 19.3426L46.8678 18.4081L46.865 18.3994L46.8621 18.3907L43.9956 19.3426ZM43.8528 18.4323L46.8731 18.4639L46.8732 18.4481L46.8732 18.4323L43.8528 18.4323ZM43.8528 15.0367L43.8528 12.0162L40.8324 12.0162L40.8324 15.0367L43.8528 15.0367ZM45.0276 15.0367L48.0481 15.0367L48.0481 12.0162L45.0276 12.0162L45.0276 15.0367ZM45.1055 18.8618L42.2513 19.8499L42.2531 19.8552L45.1055 18.8618ZM45.6605 19.4926L46.9005 16.7384L46.8918 16.7345L45.6605 19.4926ZM46.5205 19.4926L47.7605 22.2467L47.7693 22.2428L47.778 22.2388L46.5205 19.4926ZM46.8548 19.2403L44.6013 17.2292L44.5844 17.2481L44.5678 17.2673L46.8548 19.2403ZM47.0722 18.8618L44.23 17.8397L44.2142 17.8837L44.1997 17.9282L47.0722 18.8618ZM47.1501 18.3845L44.1297 18.3845L44.1297 18.4151L44.1303 18.4457L47.1501 18.3845ZM47.1501 15.023L47.1501 12.0026L44.1297 12.0026L44.1297 15.023L47.1501 15.023ZM48.3152 15.023L51.3356 15.0288L51.3414 12.0026L48.3152 12.0026L48.3152 15.023ZM48.3087 18.4357L45.2883 18.4357C45.2883 18.4511 45.2862 18.4339 45.2994 18.3941L48.1659 19.346L51.0324 20.2978C51.2404 19.6716 51.3291 19.0408 51.3291 18.4357L48.3087 18.4357ZM48.1659 19.346L45.2937 18.4115C45.3375 18.2768 45.413 18.1414 45.5246 18.0201L47.7473 20.0653L49.9699 22.1105C50.458 21.5801 50.8191 20.9538 51.0381 20.2804L48.1659 19.346ZM47.7473 20.0653L45.5427 18.0006C45.651 17.885 45.7954 17.7841 45.9627 17.7198L47.0463 20.5392L48.1298 23.3586C48.8294 23.0897 49.4475 22.6684 49.9518 22.13L47.7473 20.0653ZM47.0463 20.5392L45.9291 17.733C45.998 17.7055 46.0749 17.6918 46.1484 17.6933L46.0856 20.7131L46.0228 23.7328C46.7519 23.748 47.4778 23.6183 48.1634 23.3454L47.0463 20.5392ZM46.0856 20.7131L46.0234 17.6933C46.0896 17.6919 46.1595 17.7042 46.2223 17.729L45.1153 20.5392L44.0082 23.3494C44.6941 23.6196 45.4195 23.7479 46.1478 23.7329L46.0856 20.7131ZM45.1153 20.5392L46.2105 17.7243C46.3813 17.7908 46.5171 17.8886 46.6188 17.9972L44.4143 20.0619L42.2097 22.1266C42.7074 22.6579 43.3234 23.083 44.0201 23.3541L45.1153 20.5392ZM44.4143 20.0619L46.6369 18.0167C46.7485 18.138 46.824 18.2734 46.8678 18.4081L43.9956 19.3426L41.1234 20.277C41.3425 20.9504 41.7036 21.5767 42.1917 22.1071L44.4143 20.0619ZM43.9956 19.3426L46.8621 18.3907C46.8688 18.4108 46.8734 18.4361 46.8731 18.4639L43.8528 18.4323L40.8326 18.4007C40.8258 19.0489 40.9277 19.6879 41.1291 20.2944L43.9956 19.3426ZM43.8528 18.4323L46.8732 18.4323L46.8732 15.0367L43.8528 15.0367L40.8324 15.0367L40.8324 18.4323L43.8528 18.4323ZM43.8528 15.0367L43.8528 18.0571L45.0276 18.0571L45.0276 15.0367L45.0276 12.0162L43.8528 12.0162L43.8528 15.0367ZM45.0276 15.0367L42.0072 15.0367L42.0072 18.3845L45.0276 18.3845L48.048 18.3846L48.0481 15.0367L45.0276 15.0367ZM45.0276 18.3845L42.0072 18.3845C42.0072 18.8596 42.0815 19.3594 42.2513 19.8499L45.1055 18.8618L47.9598 17.8738C48.0257 18.0643 48.048 18.2368 48.048 18.3846L45.0276 18.3845ZM45.1055 18.8618L42.2531 19.8552C42.4247 20.3478 42.689 20.811 43.036 21.2132L45.323 19.2403L47.61 17.2673C47.7687 17.4513 47.8837 17.6554 47.9579 17.8685L45.1055 18.8618ZM45.323 19.2403L43.036 21.2132C43.4121 21.6493 43.8832 22.0068 44.4291 22.2506L45.6605 19.4926L46.8918 16.7345C47.1782 16.8624 47.422 17.0495 47.61 17.2673L45.323 19.2403ZM45.6605 19.4926L44.4205 22.2467C44.9547 22.4872 45.5243 22.605 46.0921 22.605L46.0921 19.5846L46.0921 16.5642C46.3614 16.5642 46.6388 16.6206 46.9004 16.7384L45.6605 19.4926ZM46.0921 19.5846L46.0921 22.605C46.6614 22.605 47.2305 22.4853 47.7605 22.2467L46.5205 19.4926L45.2805 16.7384C45.5379 16.6225 45.8149 16.5642 46.0921 16.5642L46.0921 19.5846ZM46.5205 19.4926L47.778 22.2388C48.3054 21.9973 48.7684 21.646 49.1418 21.2132L46.8548 19.2403L44.5678 17.2673C44.7529 17.0527 44.9888 16.8719 45.263 16.7464L46.5205 19.4926ZM46.8548 19.2403L49.1083 21.2514C49.4834 20.8311 49.7694 20.335 49.9447 19.7955L47.0722 18.8618L44.1997 17.9282C44.2842 17.6683 44.4209 17.4313 44.6013 17.2292L46.8548 19.2403ZM47.0722 18.8618L49.9144 19.884C50.097 19.3762 50.1805 18.8449 50.1699 18.3234L47.1501 18.3845L44.1303 18.4457C44.1262 18.2446 44.1578 18.0406 44.23 17.8397L47.0722 18.8618ZM47.1501 18.3845L50.1705 18.3846L50.1705 15.023L47.1501 15.023L44.1297 15.023L44.1297 18.3845L47.1501 18.3845ZM47.1501 15.023L47.1501 18.0434L48.3152 18.0434L48.3152 15.023L48.3152 12.0026L47.1501 12.0026L47.1501 15.023ZM48.3152 15.023L45.2948 15.0173L45.2883 18.4299L48.3087 18.4357L51.3291 18.4414L51.3356 15.0288L48.3152 15.023Z" fill="#004844" mask="url(#path-17-inside-5_28_4388)"/>
<mask id="path-19-inside-6_28_4388" fill="white">
<path d="M49.3086 15.023L51.0708 15.023L52.2878 18.6539L53.5243 15.023L55.2801 15.023L55.2801 20.5733L54.115 20.5733L54.115 16.3151L52.713 20.5733L51.827 20.5733L50.4932 16.3151L50.4932 20.5733L49.3118 20.5733L49.3118 15.023L49.3086 15.023Z"/>
</mask>
<path d="M49.3086 15.023L51.0708 15.023L52.2878 18.6539L53.5243 15.023L55.2801 15.023L55.2801 20.5733L54.115 20.5733L54.115 16.3151L52.713 20.5733L51.827 20.5733L50.4932 16.3151L50.4932 20.5733L49.3118 20.5733L49.3118 15.023L49.3086 15.023Z" fill="#004844"/>
<path d="M51.0708 15.023L53.9346 14.0631L53.244 12.0026L51.0708 12.0026L51.0708 15.023ZM52.2878 18.6539L49.424 19.6138L52.2651 28.09L55.147 19.6276L52.2878 18.6539ZM53.5243 15.023L53.5243 12.0026L51.3622 12.0026L50.6652 14.0493L53.5243 15.023ZM55.2801 15.023L58.3005 15.023L58.3005 12.0026L55.2801 12.0026L55.2801 15.023ZM55.2801 20.5733L55.2801 23.5937L58.3005 23.5937L58.3005 20.5733L55.2801 20.5733ZM54.115 20.5733L51.0946 20.5733L51.0946 23.5937L54.115 23.5937L54.115 20.5733ZM54.115 16.3151L57.1354 16.3151L51.2461 15.3705L54.115 16.3151ZM52.713 20.5733L52.713 23.5937L54.8984 23.5937L55.5819 21.5179L52.713 20.5733ZM51.827 20.5733L48.9447 21.4762L49.608 23.5937L51.827 23.5937L51.827 20.5733ZM50.4932 16.3151L53.3755 15.4123L47.4727 16.3151L50.4932 16.3151ZM50.4932 20.5733L50.4932 23.5937L53.5136 23.5937L53.5136 20.5733L50.4932 20.5733ZM49.3118 20.5733L46.2914 20.5733L46.2914 23.5937L49.3118 23.5937L49.3118 20.5733ZM49.3118 15.023L52.3323 15.023L52.3323 12.0026L49.3118 12.0026L49.3118 15.023ZM49.3086 15.023L49.3086 18.0434L51.0708 18.0434L51.0708 15.023L51.0708 12.0026L49.3086 12.0026L49.3086 15.023ZM51.0708 15.023L48.207 15.9829L49.424 19.6138L52.2878 18.6539L55.1517 17.694L53.9346 14.0631L51.0708 15.023ZM52.2878 18.6539L55.147 19.6276L56.3835 15.9967L53.5243 15.023L50.6652 14.0493L49.4287 17.6802L52.2878 18.6539ZM53.5243 15.023L53.5243 18.0434L55.2801 18.0434L55.2801 15.023L55.2801 12.0026L53.5243 12.0026L53.5243 15.023ZM55.2801 15.023L52.2596 15.023L52.2596 20.5733L55.2801 20.5733L58.3005 20.5733L58.3005 15.023L55.2801 15.023ZM55.2801 20.5733L55.2801 17.5529L54.115 17.5529L54.115 20.5733L54.115 23.5937L55.2801 23.5937L55.2801 20.5733ZM54.115 20.5733L57.1354 20.5733L57.1354 16.3151L54.115 16.3151L51.0946 16.3151L51.0946 20.5733L54.115 20.5733ZM54.115 16.3151L51.2461 15.3705L49.8441 19.6287L52.713 20.5733L55.5819 21.5179L56.9839 17.2597L54.115 16.3151ZM52.713 20.5733L52.713 17.5529L51.827 17.5529L51.827 20.5733L51.827 23.5937L52.713 23.5937L52.713 20.5733ZM51.827 20.5733L54.7093 19.6704L53.3755 15.4123L50.4932 16.3151L47.6108 17.218L48.9447 21.4762L51.827 20.5733ZM50.4932 16.3151L47.4727 16.3151L47.4727 20.5733L50.4932 20.5733L53.5136 20.5733L53.5136 16.3151L50.4932 16.3151ZM50.4932 20.5733L50.4932 17.5529L49.3118 17.5529L49.3118 20.5733L49.3118 23.5937L50.4932 23.5937L50.4932 20.5733ZM49.3118 20.5733L52.3323 20.5733L52.3323 15.023L49.3118 15.023L46.2914 15.023L46.2914 20.5733L49.3118 20.5733ZM49.3118 15.023L49.3118 12.0026L49.3086 12.0026L49.3086 15.023L49.3086 18.0434L49.3118 18.0434L49.3118 15.023Z" fill="#004844" mask="url(#path-19-inside-6_28_4388)"/>
<mask id="path-21-inside-7_28_4388" fill="white">
<path d="M56.3379 15.023L57.4997 15.023L57.4997 20.5733L56.3379 20.5733L56.3379 15.023Z"/>
</mask>
<path d="M56.3379 15.023L57.4997 15.023L57.4997 20.5733L56.3379 20.5733L56.3379 15.023Z" fill="#004844"/>
<path d="M56.3379 15.023L56.3379 12.0026L53.3175 12.0026L53.3175 15.023L56.3379 15.023ZM57.4997 15.023L60.5201 15.023L60.5201 12.0026L57.4997 12.0026L57.4997 15.023ZM57.4997 20.5733L57.4997 23.5937L60.5201 23.5937L60.5201 20.5733L57.4997 20.5733ZM56.3379 20.5733L53.3175 20.5733L53.3175 23.5937L56.3379 23.5937L56.3379 20.5733ZM56.3379 15.023L56.3379 18.0434L57.4997 18.0434L57.4997 15.023L57.4997 12.0026L56.3379 12.0026L56.3379 15.023ZM57.4997 15.023L54.4793 15.023L54.4793 20.5733L57.4997 20.5733L60.5201 20.5733L60.5201 15.023L57.4997 15.023ZM57.4997 20.5733L57.4997 17.5529L56.3379 17.5529L56.3379 20.5733L56.3379 23.5937L57.4997 23.5937L57.4997 20.5733ZM56.3379 20.5733L59.3583 20.5733L59.3583 15.023L56.3379 15.023L53.3175 15.023L53.3175 20.5733L56.3379 20.5733Z" fill="#004844" mask="url(#path-21-inside-7_28_4388)"/>
<mask id="path-23-inside-8_28_4388" fill="white">
<path d="M61.1758 16.3902C61.0752 16.2607 60.9422 16.1652 60.7929 16.1107C60.6436 16.0493 60.4878 16.0186 60.3288 16.0118C60.2412 16.0118 60.1535 16.0254 60.0659 16.0459C59.9783 16.0664 59.8939 16.097 59.816 16.1448C59.7381 16.1857 59.6732 16.2436 59.6213 16.3186C59.5694 16.3971 59.5434 16.4925 59.5467 16.588C59.5402 16.738 59.6083 16.8812 59.7252 16.9664C59.8647 17.0653 60.0172 17.1437 60.1763 17.1914C60.3548 17.2562 60.5527 17.321 60.7604 17.3789C60.9649 17.4403 61.1628 17.5323 61.3446 17.6483C61.5263 17.7642 61.6821 17.921 61.7957 18.1119C61.9223 18.3403 61.9839 18.6028 61.9742 18.8654C61.9807 19.1449 61.9223 19.4211 61.8087 19.6768C61.7048 19.8984 61.5523 20.0927 61.3641 20.2461C61.1693 20.4029 60.9487 20.5189 60.715 20.587C60.4619 20.662 60.199 20.6961 59.9361 20.6961C59.6116 20.703 59.2903 20.6484 58.982 20.5427C58.6769 20.4268 58.3978 20.2461 58.1609 20.0109L58.9885 19.0529C59.1053 19.2165 59.2611 19.3461 59.4396 19.4313C59.6148 19.5233 59.8063 19.5711 60.0043 19.5711C60.1016 19.5711 60.1957 19.5574 60.2898 19.5336C60.3807 19.5131 60.4716 19.479 60.5527 19.4279C60.6274 19.3836 60.6923 19.3222 60.741 19.2472C60.7896 19.1722 60.8124 19.0801 60.8091 18.9915C60.8091 18.8415 60.741 18.7017 60.6274 18.6131C60.4878 18.504 60.332 18.4222 60.1665 18.3642C59.9848 18.296 59.7868 18.2278 59.5694 18.1596C59.3617 18.1017 59.1605 18.013 58.9722 17.9039C58.7905 17.7914 58.6315 17.6346 58.5114 17.4505C58.3783 17.2255 58.3134 16.963 58.3296 16.6971C58.3232 16.4243 58.3816 16.155 58.4984 15.9129C58.6087 15.6947 58.7613 15.5004 58.9463 15.3504C59.1377 15.1902 59.3552 15.0709 59.5888 14.9993C59.842 14.9208 60.0951 14.8833 60.3515 14.8833C60.6468 14.8833 60.9389 14.9277 61.2213 15.0163C61.5004 15.1084 61.7568 15.2618 61.9742 15.4663L61.1758 16.3936L61.1758 16.3902Z"/>
</mask>
<path d="M61.1758 16.3902C61.0752 16.2607 60.9422 16.1652 60.7929 16.1107C60.6436 16.0493 60.4878 16.0186 60.3288 16.0118C60.2412 16.0118 60.1535 16.0254 60.0659 16.0459C59.9783 16.0664 59.8939 16.097 59.816 16.1448C59.7381 16.1857 59.6732 16.2436 59.6213 16.3186C59.5694 16.3971 59.5434 16.4925 59.5467 16.588C59.5402 16.738 59.6083 16.8812 59.7252 16.9664C59.8647 17.0653 60.0172 17.1437 60.1763 17.1914C60.3548 17.2562 60.5527 17.321 60.7604 17.3789C60.9649 17.4403 61.1628 17.5323 61.3446 17.6483C61.5263 17.7642 61.6821 17.921 61.7957 18.1119C61.9223 18.3403 61.9839 18.6028 61.9742 18.8654C61.9807 19.1449 61.9223 19.4211 61.8087 19.6768C61.7048 19.8984 61.5523 20.0927 61.3641 20.2461C61.1693 20.4029 60.9487 20.5189 60.715 20.587C60.4619 20.662 60.199 20.6961 59.9361 20.6961C59.6116 20.703 59.2903 20.6484 58.982 20.5427C58.6769 20.4268 58.3978 20.2461 58.1609 20.0109L58.9885 19.0529C59.1053 19.2165 59.2611 19.3461 59.4396 19.4313C59.6148 19.5233 59.8063 19.5711 60.0043 19.5711C60.1016 19.5711 60.1957 19.5574 60.2898 19.5336C60.3807 19.5131 60.4716 19.479 60.5527 19.4279C60.6274 19.3836 60.6923 19.3222 60.741 19.2472C60.7896 19.1722 60.8124 19.0801 60.8091 18.9915C60.8091 18.8415 60.741 18.7017 60.6274 18.6131C60.4878 18.504 60.332 18.4222 60.1665 18.3642C59.9848 18.296 59.7868 18.2278 59.5694 18.1596C59.3617 18.1017 59.1605 18.013 58.9722 17.9039C58.7905 17.7914 58.6315 17.6346 58.5114 17.4505C58.3783 17.2255 58.3134 16.963 58.3296 16.6971C58.3232 16.4243 58.3816 16.155 58.4984 15.9129C58.6087 15.6947 58.7613 15.5004 58.9463 15.3504C59.1377 15.1902 59.3552 15.0709 59.5888 14.9993C59.842 14.9208 60.0951 14.8833 60.3515 14.8833C60.6468 14.8833 60.9389 14.9277 61.2213 15.0163C61.5004 15.1084 61.7568 15.2618 61.9742 15.4663L61.1758 16.3936L61.1758 16.3902Z" fill="#004844"/>
<path d="M61.1758 16.3902L64.1962 16.3902L64.1962 15.3552L63.5614 14.5377L61.1758 16.3902ZM60.7929 16.1107L59.6445 18.9043L59.7 18.9271L59.7563 18.9476L60.7929 16.1107ZM60.3288 16.0118L60.4582 12.9942L60.3935 12.9914L60.3288 12.9914L60.3288 16.0118ZM59.816 16.1448L61.2205 18.8188L61.309 18.7723L61.3942 18.7201L59.816 16.1448ZM59.6213 16.3186L57.1379 14.5994L57.1202 14.625L57.103 14.651L59.6213 16.3186ZM59.5467 16.588L62.5643 16.7185L62.5693 16.602L62.5653 16.4853L59.5467 16.588ZM59.7252 16.9664L57.9451 19.4065L57.962 19.4189L57.9791 19.431L59.7252 16.9664ZM60.1763 17.1914L61.2066 14.3522L61.1263 14.323L61.0446 14.2985L60.1763 17.1914ZM60.7604 17.3789L61.6287 14.486L61.6006 14.4775L61.5722 14.4696L60.7604 17.3789ZM61.7957 18.1119L64.4376 16.648L64.4152 16.6074L64.3914 16.5676L61.7957 18.1119ZM61.9742 18.8654L58.9559 18.7534L58.9525 18.8444L58.9546 18.9355L61.9742 18.8654ZM61.8087 19.6768L64.5437 20.9585L64.5566 20.9309L64.569 20.903L61.8087 19.6768ZM61.3641 20.2461L63.2586 22.5985L63.2655 22.5929L63.2723 22.5874L61.3641 20.2461ZM60.715 20.587L59.8689 17.6875L59.8569 17.6911L60.715 20.587ZM59.9361 20.6961L59.9361 17.6757L59.9044 17.6757L59.8727 17.6764L59.9361 20.6961ZM58.982 20.5427L57.9091 23.3662L57.9556 23.3838L58.0025 23.3999L58.982 20.5427ZM58.1609 20.0109L55.8752 18.0364L54.0332 20.1688L56.0327 22.1542L58.1609 20.0109ZM58.9885 19.0529L61.4467 17.2978L59.2143 14.171L56.7028 17.0784L58.9885 19.0529ZM59.4396 19.4313L60.8441 16.7573L60.7931 16.7305L60.7411 16.7057L59.4396 19.4313ZM60.2898 19.5336L59.6265 16.5869L59.5869 16.5958L59.5475 16.6058L60.2898 19.5336ZM60.5527 19.4279L59.0107 16.8308L58.9761 16.8513L58.9422 16.8727L60.5527 19.4279ZM60.8091 18.9915L57.7887 18.9915L57.7887 19.0468L57.7907 19.102L60.8091 18.9915ZM60.6274 18.6131L58.7671 20.9926L58.7692 20.9942L60.6274 18.6131ZM60.1665 18.3642L59.1055 21.1921L59.1368 21.2039L59.1683 21.2149L60.1665 18.3642ZM59.5694 18.1596L60.4731 15.2776L60.4274 15.2633L60.3812 15.2504L59.5694 18.1596ZM58.9722 17.9039L57.3824 20.4721L57.4197 20.4952L57.4576 20.5172L58.9722 17.9039ZM58.5114 17.4505L55.9115 18.9879L55.9453 19.045L55.9815 19.1006L58.5114 17.4505ZM58.3296 16.6971L61.3445 16.881L61.3523 16.7532L61.3492 16.6252L58.3296 16.6971ZM58.4984 15.9129L55.8031 14.5499L55.7904 14.5748L55.7783 14.6L58.4984 15.9129ZM58.9463 15.3504L60.8487 17.6964L60.8668 17.6817L60.8847 17.6668L58.9463 15.3504ZM59.5888 14.9993L60.4737 17.8872L60.4826 17.8844L59.5888 14.9993ZM61.2213 15.0163L62.1673 12.1479L62.1467 12.1411L62.126 12.1346L61.2213 15.0163ZM61.9742 15.4663L64.2632 17.437L66.1488 15.2467L64.0438 13.2664L61.9742 15.4663ZM61.1758 16.3936L58.1554 16.3936L58.1554 24.5313L63.4648 18.3643L61.1758 16.3936ZM61.1758 16.3902L63.5614 14.5377C63.1076 13.9533 62.5043 13.5203 61.8295 13.2737L60.7929 16.1107L59.7563 18.9476C59.38 18.8102 59.0429 18.5681 58.7903 18.2428L61.1758 16.3902ZM60.7929 16.1107L61.9412 13.3171C61.4297 13.1068 60.9236 13.0141 60.4582 12.9942L60.3288 16.0118L60.1994 19.0294C60.0521 19.0231 59.8575 18.9918 59.6445 18.9043L60.7929 16.1107ZM60.3288 16.0118L60.3288 12.9914C59.9337 12.9914 59.6031 13.0523 59.3793 13.1046L60.0659 16.0459L60.7526 18.9872C60.704 18.9986 60.5486 19.0322 60.3288 19.0322L60.3288 16.0118ZM60.0659 16.0459L59.3793 13.1046C59.0604 13.179 58.6561 13.3131 58.2379 13.5694L59.816 16.1448L61.3942 18.7201C61.1317 18.8809 60.8962 18.9537 60.7526 18.9872L60.0659 16.0459ZM59.816 16.1448L58.4115 13.4708C57.8861 13.7467 57.4566 14.1391 57.1379 14.5994L59.6213 16.3186L62.1047 18.0379C61.8898 18.3482 61.5902 18.6246 61.2205 18.8188L59.816 16.1448ZM59.6213 16.3186L57.103 14.651C56.6896 15.2753 56.5043 15.9945 56.528 16.6906L59.5467 16.588L62.5653 16.4853C62.5825 16.9905 62.4492 17.5188 62.1396 17.9863L59.6213 16.3186ZM59.5467 16.588L56.5291 16.4574C56.4803 17.5855 56.986 18.7069 57.9451 19.4065L59.7252 16.9664L61.5053 14.5263C62.2306 15.0555 62.6001 15.8905 62.5643 16.7185L59.5467 16.588ZM59.7252 16.9664L57.9791 19.431C58.3454 19.6905 58.7906 19.9291 59.308 20.0843L60.1763 17.1914L61.0446 14.2985C61.2438 14.3583 61.384 14.44 61.4712 14.5018L59.7252 16.9664ZM60.1763 17.1914L59.1459 20.0306C59.3889 20.1188 59.66 20.2077 59.9486 20.2882L60.7604 17.3789L61.5722 14.4696C61.4454 14.4343 61.3206 14.3935 61.2066 14.3522L60.1763 17.1914ZM60.7604 17.3789L59.8921 20.2718C59.8177 20.2495 59.7625 20.2217 59.7204 20.1948L61.3446 17.6483L62.9688 15.1017C62.5632 14.843 62.1121 14.6311 61.6287 14.486L60.7604 17.3789ZM61.3446 17.6483L59.7204 20.1948C59.5201 20.0671 59.3368 19.8864 59.2 19.6563L61.7957 18.1119L64.3914 16.5676C64.0274 15.9556 63.5325 15.4613 62.9688 15.1017L61.3446 17.6483ZM61.7957 18.1119L59.1538 19.5758C59.009 19.3145 58.9456 19.0309 58.9559 18.7534L61.9742 18.8654L64.9925 18.9773C65.0223 18.1748 64.8356 17.3661 64.4376 16.648L61.7957 18.1119ZM61.9742 18.8654L58.9546 18.9355C58.9502 18.7461 58.9904 18.5809 59.0484 18.4505L61.8087 19.6768L64.569 20.903C64.8541 20.2612 65.0112 19.5438 64.9938 18.7953L61.9742 18.8654ZM61.8087 19.6768L59.0737 18.395C59.1642 18.202 59.2957 18.0353 59.4558 17.9048L61.3641 20.2461L63.2723 22.5874C63.8089 22.15 64.2455 21.5947 64.5437 20.9585L61.8087 19.6768ZM61.3641 20.2461L59.4695 17.8938C59.5762 17.8078 59.71 17.7339 59.8689 17.6875L60.715 20.587L61.5611 23.4865C62.1873 23.3038 62.7625 22.998 63.2586 22.5985L61.3641 20.2461ZM60.715 20.587L59.8569 17.6911C59.9106 17.6752 59.9395 17.6757 59.9361 17.6757L59.9361 20.6961L59.9361 23.7165C60.4585 23.7165 61.0131 23.6489 61.5731 23.483L60.715 20.587ZM59.9361 20.6961L59.8727 17.6764C59.9307 17.6752 59.962 17.6857 59.9614 17.6855L58.982 20.5427L58.0025 23.3999C58.6186 23.6111 59.2924 23.7307 59.9995 23.7159L59.9361 20.6961ZM58.982 20.5427L60.0548 17.7193C60.1538 17.7569 60.2323 17.8112 60.2891 17.8676L58.1609 20.0109L56.0327 22.1542C56.5633 22.681 57.2 23.0967 57.9091 23.3662L58.982 20.5427ZM58.1609 20.0109L60.4466 21.9854L61.2741 21.0273L58.9885 19.0529L56.7028 17.0784L55.8752 18.0364L58.1609 20.0109ZM58.9885 19.0529L56.5302 20.8079C56.9472 21.3919 57.5026 21.8535 58.1381 22.1569L59.4396 19.4313L60.7411 16.7057C61.0195 16.8386 61.2634 17.0411 61.4467 17.2978L58.9885 19.0529ZM59.4396 19.4313L58.035 22.1053C58.6389 22.4225 59.3118 22.5915 60.0043 22.5915L60.0043 19.5711L60.0043 16.5507C60.3008 16.5507 60.5907 16.6242 60.8441 16.7573L59.4396 19.4313ZM60.0043 19.5711L60.0043 22.5915C60.3898 22.5915 60.7351 22.5367 61.0322 22.4613L60.2898 19.5336L59.5475 16.6058C59.6563 16.5782 59.8134 16.5507 60.0043 16.5507L60.0043 19.5711ZM60.2898 19.5336L60.9532 22.4803C61.3148 22.3989 61.7395 22.2502 62.1633 21.9831L60.5527 19.4279L58.9422 16.8727C59.2037 16.7079 59.4467 16.6274 59.6265 16.5869L60.2898 19.5336ZM60.5527 19.4279L62.0948 22.025C62.5601 21.7487 62.9675 21.3646 63.2745 20.8916L60.741 19.2472L58.2074 17.6028C58.417 17.2799 58.6946 17.0184 59.0107 16.8308L60.5527 19.4279ZM60.741 19.2472L63.2745 20.8916C63.6928 20.2471 63.8513 19.5304 63.8275 18.881L60.8091 18.9915L57.7907 19.102C57.7734 18.6299 57.8864 18.0973 58.2074 17.6028L60.741 19.2472ZM60.8091 18.9915L63.8295 18.9915C63.8295 17.9325 63.3493 16.9059 62.4856 16.2319L60.6274 18.6131L58.7692 20.9942C58.1326 20.4975 57.7887 19.7505 57.7887 18.9915L60.8091 18.9915ZM60.6274 18.6131L62.4876 16.2335C62.0636 15.902 61.6102 15.6695 61.1647 15.5135L60.1665 18.3642L59.1683 21.2149C59.0539 21.1748 58.9121 21.106 58.7671 20.9926L60.6274 18.6131ZM60.1665 18.3642L61.2275 15.5363C60.9903 15.4473 60.7397 15.3612 60.4731 15.2776L59.5694 18.1596L58.6656 21.0417C58.8339 21.0944 58.9792 21.1447 59.1055 21.1921L60.1665 18.3642ZM59.5694 18.1596L60.3812 15.2504C60.4514 15.27 60.4851 15.2897 60.4868 15.2907L58.9722 17.9039L57.4576 20.5172C57.8358 20.7364 58.2719 20.9334 58.7576 21.0689L59.5694 18.1596ZM58.9722 17.9039L60.562 15.3358C60.7712 15.4653 60.9283 15.6272 61.0412 15.8004L58.5114 17.4505L55.9815 19.1006C56.3347 19.642 56.8098 20.1176 57.3824 20.4721L58.9722 17.9039ZM58.5114 17.4505L61.1112 15.9131C61.2819 16.2016 61.3654 16.5378 61.3445 16.881L58.3296 16.6971L55.3148 16.5131C55.2614 17.3882 55.4748 18.2494 55.9115 18.9879L58.5114 17.4505ZM58.3296 16.6971L61.3492 16.6252C61.3541 16.829 61.3109 17.0345 61.2185 17.2259L58.4984 15.9129L55.7783 14.6C55.4523 15.2755 55.2923 16.0197 55.3101 16.7689L58.3296 16.6971ZM58.4984 15.9129L61.1938 17.276C61.1275 17.407 61.02 17.5575 60.8487 17.6964L58.9463 15.3504L57.0439 13.0044C56.5025 13.4434 56.09 13.9825 55.8031 14.5499L58.4984 15.9129ZM58.9463 15.3504L60.8847 17.6668C60.7779 17.7561 60.6396 17.8363 60.4737 17.8872L59.5888 14.9993L58.704 12.1114C58.0708 12.3054 57.4976 12.6242 57.0079 13.0341L58.9463 15.3504ZM59.5888 14.9993L60.4826 17.8844C60.4665 17.8894 60.4452 17.8946 60.42 17.8984C60.3949 17.9022 60.3714 17.9038 60.3515 17.9038L60.3515 14.8833L60.3515 11.8629C59.7933 11.8629 59.2389 11.9457 58.6951 12.1141L59.5888 14.9993ZM60.3515 14.8833L60.3515 17.9038C60.3479 17.9038 60.3424 17.9035 60.3357 17.9024C60.3289 17.9014 60.3224 17.8999 60.3166 17.898L61.2213 15.0163L62.126 12.1346C61.5482 11.9532 60.9509 11.8629 60.3515 11.8629L60.3515 14.8833ZM61.2213 15.0163L60.2752 17.8847C60.1272 17.8359 60.002 17.7578 59.9046 17.6663L61.9742 15.4663L64.0438 13.2664C63.5115 12.7657 62.8735 12.3808 62.1673 12.1479L61.2213 15.0163ZM61.9742 15.4663L59.6852 13.4957L58.8869 14.423L61.1758 16.3936L63.4648 18.3643L64.2632 17.437L61.9742 15.4663ZM61.1758 16.3936L64.1962 16.3936L64.1962 16.3902L61.1758 16.3902L58.1554 16.3902L58.1554 16.3936L61.1758 16.3936Z" fill="#004844" mask="url(#path-23-inside-8_28_4388)"/>
<mask id="path-25-inside-9_28_4388" fill="white">
<path d="M63.8669 16.1038L62.3611 16.1038L62.3611 15.023L66.5379 15.023L66.5379 16.1038L65.032 16.1038L65.032 20.5733L63.8702 20.5733L63.8702 16.1038L63.8669 16.1038Z"/>
</mask>
<path d="M63.8669 16.1038L62.3611 16.1038L62.3611 15.023L66.5379 15.023L66.5379 16.1038L65.032 16.1038L65.032 20.5733L63.8702 20.5733L63.8702 16.1038L63.8669 16.1038Z" fill="#004844"/>
<path d="M62.3611 16.1038L59.3407 16.1038L59.3407 19.1242L62.3611 19.1242L62.3611 16.1038ZM62.3611 15.023L62.3611 12.0026L59.3407 12.0026L59.3407 15.023L62.3611 15.023ZM66.5379 15.023L69.5583 15.023L69.5583 12.0026L66.5379 12.0026L66.5379 15.023ZM66.5379 16.1038L66.5379 19.1242L69.5583 19.1242L69.5583 16.1038L66.5379 16.1038ZM65.032 16.1038L65.032 13.0833L62.0116 13.0833L62.0116 16.1038L65.032 16.1038ZM65.032 20.5733L65.032 23.5937L68.0524 23.5937L68.0524 20.5733L65.032 20.5733ZM63.8702 20.5733L60.8498 20.5733L60.8498 23.5937L63.8702 23.5937L63.8702 20.5733ZM63.8702 16.1038L66.8906 16.1038L66.8906 13.0833L63.8702 13.0833L63.8702 16.1038ZM63.8669 16.1038L63.8669 13.0833L62.3611 13.0833L62.3611 16.1038L62.3611 19.1242L63.8669 19.1242L63.8669 16.1038ZM62.3611 16.1038L65.3815 16.1038L65.3815 15.023L62.3611 15.023L59.3407 15.023L59.3407 16.1038L62.3611 16.1038ZM62.3611 15.023L62.3611 18.0434L66.5379 18.0434L66.5379 15.023L66.5379 12.0026L62.3611 12.0026L62.3611 15.023ZM66.5379 15.023L63.5175 15.023L63.5175 16.1038L66.5379 16.1038L69.5583 16.1038L69.5583 15.023L66.5379 15.023ZM66.5379 16.1038L66.5379 13.0833L65.032 13.0833L65.032 16.1038L65.032 19.1242L66.5379 19.1242L66.5379 16.1038ZM65.032 16.1038L62.0116 16.1038L62.0116 20.5733L65.032 20.5733L68.0524 20.5733L68.0524 16.1038L65.032 16.1038ZM65.032 20.5733L65.032 17.5529L63.8702 17.5529L63.8702 20.5733L63.8702 23.5937L65.032 23.5937L65.032 20.5733ZM63.8702 20.5733L66.8906 20.5733L66.8906 16.1038L63.8702 16.1038L60.8498 16.1038L60.8498 20.5733L63.8702 20.5733ZM63.8702 16.1038L63.8702 13.0833L63.8669 13.0833L63.8669 16.1038L63.8669 19.1242L63.8702 19.1242L63.8702 16.1038Z" fill="#004844" mask="url(#path-25-inside-9_28_4388)"/>
</svg>
